<?xml version="1.0" standalone="no"?>
<!DOCTYPE svg PUBLIC "-//W3C//DTD SVG 20010904//EN"
 "http://www.w3.org/TR/2001/REC-SVG-20010904/DTD/svg10.dtd">
<svg version="1.0" xmlns="http://www.w3.org/2000/svg"
 width="144.000000pt" height="144.000000pt" viewBox="0 0 144.000000 144.000000"
 preserveAspectRatio="xMidYMid meet">
<metadata>
Created by potrace 1.11, written by Peter Selinger 2001-2013
</metadata>
<g transform="translate(0.000000,144.000000) scale(0.100000,-0.100000)"
fill="#000000" stroke="none">
<path d="M541 1350 c-63 -13 -197 -82 -258 -132 -111 -92 -188 -217 -219 -354
-21 -98 -15 -251 15 -344 59 -184 212 -340 406 -412 52 -19 80 -22 205 -22
125 0 153 3 205 22 196 73 348 229 408 417 32 100 32 290 0 390 -58 183 -201
332 -395 412 -55 23 -80 26 -193 29 -71 2 -150 -1 -174 -6z m374 -320 c36 -22
45 -40 71 -145 23 -91 30 -105 58 -105 12 0 33 -12 47 -26 22 -23 24 -34 24
-122 l0 -97 -27 -3 c-26 -3 -28 -7 -28 -47 0 -35 -5 -48 -26 -64 -58 -46 -124
-4 -124 78 l0 31 -215 0 -215 0 0 -31 c0 -82 -66 -124 -124 -78 -21 16 -26 29
-26 64 0 40 -2 44 -27 47 l-28 3 0 97 c0 88 2 99 24 122 14 14 35 26 47 26 28
0 35 14 58 105 26 104 35 122 70 145 28 18 48 20 220 20 172 0 192 -2 221 -20z"/>
<path d="M521 947 c-10 -13 -32 -100 -35 -142 -1 -19 5 -20 209 -20 204 0 210
1 209 20 -3 42 -25 129 -35 142 -16 19 -332 19 -348 0z"/>
<path d="M352 707 c-28 -30 -28 -68 1 -95 33 -31 80 -29 107 5 54 69 -48 154
-108 90z"/>
<path d="M942 713 c-52 -44 -24 -123 42 -123 66 0 99 75 53 118 -28 27 -67 28
-95 5z"/>
</g>
</svg>
