<svg version="1" xmlns="http://www.w3.org/2000/svg" width="192" height="192" viewBox="0 0 144.000000 144.000000"><path d="M54.1 9c-6.3 1.3-19.7 8.2-25.8 13.2C17.2 31.4 9.5 43.9 6.4 57.6 4.3 67.4 4.9 82.7 7.9 92c5.9 18.4 21.2 34 40.6 41.2 5.2 1.9 8 2.2 20.5 2.2s15.3-.3 20.5-2.2c19.6-7.3 34.8-22.9 40.8-41.7 3.2-10 3.2-29 0-39-5.8-18.3-20.1-33.2-39.5-41.2-5.5-2.3-8-2.6-19.3-2.9-7.1-.2-15 .1-17.4.6zm37.4 32c3.6 2.2 4.5 4 7.1 14.5 2.3 9.1 3 10.5 5.8 10.5 1.2 0 3.3 1.2 4.7 2.6 2.2 2.3 2.4 3.4 2.4 12.2v9.7l-2.7.3c-2.6.3-2.8.7-2.8 4.7 0 3.5-.5 4.8-2.6 6.4-5.8 4.6-12.4.4-12.4-7.8V91H48v3.1c0 8.2-6.6 12.4-12.4 7.8-2.1-1.6-2.6-2.9-2.6-6.4 0-4-.2-4.4-2.7-4.7l-2.8-.3v-9.7c0-8.8.2-9.9 2.4-12.2 1.4-1.4 3.5-2.6 4.7-2.6 2.8 0 3.5-1.4 5.8-10.5 2.6-10.4 3.5-12.2 7-14.5 2.8-1.8 4.8-2 22-2s19.2.2 22.1 2z"/><path d="M52.1 49.3c-1 1.3-3.2 10-3.5 14.2-.1 1.9.5 2 20.9 2s21-.1 20.9-2c-.3-4.2-2.5-12.9-3.5-14.2-1.6-1.9-33.2-1.9-34.8 0zm-16.9 24c-2.8 3-2.8 6.8.1 9.5 3.3 3.1 8 2.9 10.7-.5 5.4-6.9-4.8-15.4-10.8-9zm59-.6C89 77.1 91.8 85 98.4 85s9.9-7.5 5.3-11.8c-2.8-2.7-6.7-2.8-9.5-.5z"/></svg>